HIERARCHY
ROOT root
{
	OFFSET	0	13.1	24.9
	CHANNELS 6  Xposition Yposition Zposition Xrotation Yrotation Zrotation
	JOINT spine_1
	{
		OFFSET	0	9.99999	0
		CHANNELS 3  Xrotation Yrotation Zrotation
		JOINT spine_2
		{
			OFFSET	0	112	-10
			CHANNELS 3  Xrotation Yrotation Zrotation
			JOINT spine_3
			{
				OFFSET	0	206.5	19.3
				CHANNELS 3  Xrotation Yrotation Zrotation
				JOINT spine_4
				{
					OFFSET	0	110.4	14.6
					CHANNELS 3  Xrotation Yrotation Zrotation
					JOINT neck_1
					{
						OFFSET	0	71.8	-50.3
						CHANNELS 3  Xrotation Yrotation Zrotation
						JOINT neck_2
						{
							OFFSET	0	86.2	-25.8
							CHANNELS 3  Xrotation Yrotation Zrotation
							JOINT head_ee
							{
								OFFSET	0	179.8	-8.7
								CHANNELS 3  Xrotation Yrotation Zrotation
								End Site
								{
									OFFSET	1	0	0
								}
							}
						}
					}
					JOINT left_clavicle
					{
						OFFSET	-43.2	22.4	-70.8
						CHANNELS 3  Xrotation Yrotation Zrotation
						JOINT left_shoulder
						{
							OFFSET	-93.9	-5.79999	48.7
							CHANNELS 3  Xrotation Yrotation Zrotation
							JOINT left_elbow
							{
								OFFSET	-291.4	-30.8	15.2
								CHANNELS 3  Xrotation Yrotation Zrotation
								JOINT left_lowarm_twist
								{
									OFFSET	-110.7	-3.89999	13.6
									CHANNELS 3  Xrotation Yrotation Zrotation
									JOINT left_hand
									{
										OFFSET	-110.7	-3.89999	13.6
										CHANNELS 3  Xrotation Yrotation Zrotation
										JOINT left_ee
										{
											OFFSET	-80.8	-5.10001	12.1
											CHANNELS 3  Xrotation Yrotation Zrotation
											End Site
											{
												OFFSET	1	0	0
											}
										}
									}
								}
							}
						}
					}
					JOINT right_clavicle
					{
						OFFSET	43.2	22.4	-70.8
						CHANNELS 3  Xrotation Yrotation Zrotation
						JOINT right_shoulder
						{
							OFFSET	93.9	-5.79999	48.7
							CHANNELS 3  Xrotation Yrotation Zrotation
							JOINT right_elbow
							{
								OFFSET	291.4	-30.8	15.2
								CHANNELS 3  Xrotation Yrotation Zrotation
								JOINT right_lowarm_twist
								{
									OFFSET	110.7	-3.89999	13.6
									CHANNELS 3  Xrotation Yrotation Zrotation
									JOINT right_hand
									{
										OFFSET	110.7	-3.89999	13.6
										CHANNELS 3  Xrotation Yrotation Zrotation
										JOINT right_ee
										{
											OFFSET	80.8	-5.10001	12.1
											CHANNELS 3  Xrotation Yrotation Zrotation
											End Site
											{
												OFFSET	1	0	0
											}
										}
									}
								}
							}
						}
					}
				}
			}
		}
	}
	JOINT left_hip
	{
		OFFSET	-82.8	-127.5	0.300001
		CHANNELS 3  Xrotation Yrotation Zrotation
		JOINT left_knee
		{
			OFFSET	-28.2	-396.7	2.2
			CHANNELS 3  Xrotation Yrotation Zrotation
			JOINT left_ankle
			{
				OFFSET	-11.7	-411.3	35.4
				CHANNELS 3  Xrotation Yrotation Zrotation
				JOINT left_toes
				{
					OFFSET	0	-60	-88.6
					CHANNELS 3  Xrotation Yrotation Zrotation
					JOINT left_foot_ee
					{
						OFFSET	-22.5	-16.5	-42.2
						CHANNELS 3  Xrotation Yrotation Zrotation
						End Site
						{
							OFFSET	1	0	0
						}
					}
				}
			}
		}
	}
	JOINT right_hip
	{
		OFFSET	82.8	-127.5	0.300001
		CHANNELS 3  Xrotation Yrotation Zrotation
		JOINT right_knee
		{
			OFFSET	28.2	-396.7	2.2
			CHANNELS 3  Xrotation Yrotation Zrotation
			JOINT right_ankle
			{
				OFFSET	11.7	-411.3	35.4
				CHANNELS 3  Xrotation Yrotation Zrotation
				JOINT right_toes
				{
					OFFSET	0	-60	-88.6
					CHANNELS 3  Xrotation Yrotation Zrotation
					JOINT right_foot_ee
					{
						OFFSET	22.5	-16.5	-42.2
						CHANNELS 3  Xrotation Yrotation Zrotation
						End Site
						{
							OFFSET	1	0	0
						}
					}
				}
			}
		}
	}
}
MOTION
Frames: 15
Frame Time: 0.02
977.523 721.278 -1461.22 -5.05724 38.5645 17.1364 2.75588 -0.454315 -3.51396 2.76272 -0.229935 -3.53571 2.77526 0.348299 -3.52603 2.75797 -0.212584 -3.53679 -8.20724 8.0427 2.74509 -8.21312 13.1018 4.49323 -0.0 0.0 -0.0 -1.00648 19.8361 0.832136 10.9379 -18.599 66.3126 3.37992 -59.1379 1.91802 -14.1215 -0.705751 1.65741 -1.61567 1.99092 -9.94082 -0.0 0.0 -0.0 5.98889 10.7533 -11.217 -25.2832 24.611 -66.2356 0.208944 5.90947 -0.0107847 -5.41426 0.22194 -0.655299 3.83625 -3.09495 -27.8322 0.0 0.0 0.0 9.21257 6.30948 -15.3192 5.88091 -0.286448 -0.856342 26.0512 28.3482 -3.71593 6.38991 -0.0 -0.0 -0.0 0.0 -0.0 57.8025 39.269 -44.8978 -28.1409 -0.110774 -4.27393 11.7542 -28.8266 1.77894 6.19854 -0.0 -0.0 0.0 0.0 0.0 
971.886 725.513 -1465.79 -6.58594 38.1944 18.3573 2.96955 -0.458345 -3.58499 2.97667 -0.229446 -3.60685 2.98897 0.346943 -3.59746 2.97099 -0.225183 -3.60712 -4.31989 8.5891 2.71237 -4.25921 13.6785 4.17987 -0.0 0.0 -0.0 -0.503071 20.1497 1.6127 10.1451 -19.2034 65.8281 3.27511 -58.3382 1.82842 -10.8882 -0.508313 1.29387 -1.13763 0.869152 -7.23214 -0.0 0.0 -0.0 6.17777 11.0297 -11.6008 -26.1366 27.1992 -66.0425 0.193285 5.4694 -0.00923247 -7.90885 0.344855 -0.94965 3.80868 -6.46036 -28.8632 0.0 0.0 0.0 9.40156 6.1179 -15.5781 6.23935 -0.306738 -0.907552 29.6892 27.0241 -4.12322 5.81151 -0.0 -0.0 -0.0 0.0 -0.0 55.691 36.8843 -42.3991 -27.5114 -0.131311 -4.17951 13.8896 -28.8254 2.08732 11.3819 -0.0 -0.0 0.0 0.0 0.0 
968.412 728.937 -1471.07 -7.16901 38.5561 18.9106 2.74864 -0.531983 -3.72245 2.7563 -0.294206 -3.74871 2.77375 0.319564 -3.74664 2.75427 -0.275729 -3.75011 -3.69084 8.05102 3.76025 -3.62061 11.8056 5.11811 -0.0 0.0 -0.0 -0.39188 21.0789 1.88909 10.7228 -19.2441 65.4525 3.17592 -57.5464 1.74435 -10.3884 -0.479644 1.23673 -1.32586 0.244609 -8.77978 -0.0 0.0 -0.0 6.16277 10.4176 -11.601 -24.7845 27.3868 -66.4451 0.210018 5.93965 -0.0108957 -6.34992 0.266535 -0.766319 4.16961 -2.76756 -30.2524 0.0 0.0 0.0 10.5969 5.99503 -15.9553 2.05732 -0.0901706 -0.302797 29.8599 26.4935 -4.129 6.74738 -0.0 -0.0 -0.0 0.0 -0.0 56.674 42.3707 -42.6729 -16.8707 -0.319768 -2.55989 -2.12703 -23.4501 -0.323745 5.1793 -0.0 -0.0 0.0 0.0 0.0 
959.132 727.467 -1474.05 -6.71759 39.8118 18.9724 2.68727 -0.553714 -3.79474 2.69523 -0.311303 -3.82223 2.71426 0.318613 -3.82162 2.694 -0.288486 -3.82401 -6.08872 6.67043 3.84397 -6.04801 9.51017 5.12947 -0.0 0.0 -0.0 -0.101567 19.6754 2.14569 9.90113 -19.4824 66.236 3.07157 -56.6744 1.65672 -11.2526 -0.529533 1.33539 -1.74902 2.39536 -10.6533 -0.0 0.0 -0.0 5.87559 11.2322 -10.9517 -24.9093 27.5409 -66.4379 0.272015 7.67445 -0.0182447 -6.35333 0.266701 -0.766722 4.44633 -5.16581 -33.3371 0.0 0.0 0.0 11.1914 5.43645 -16.33 -2.02407 0.0780322 0.300809 31.374 23.8591 -4.23632 7.5808 -0.0 -0.0 -0.0 0.0 -0.0 51.0801 41.9833 -39.1341 -12.078 -0.305911 -1.82489 -3.50944 -20.7948 -0.529616 5.7608 -0.0 -0.0 0.0 0.0 0.0 
957.702 727.686 -1476.93 -7.31607 39.6981 19.3309 2.79488 -0.566702 -3.66999 2.80231 -0.332187 -3.69856 2.82193 0.270719 -3.70356 2.80293 -0.317176 -3.69987 -4.18711 6.40549 3.84963 -4.13564 8.78773 4.98298 -0.0 0.0 -0.0 -0.218983 19.4142 1.94152 9.72566 -19.2151 66.397 2.99703 -56.0258 1.59467 -11.1471 -0.523361 1.32338 -1.21341 0.0329091 -8.11564 -0.0 0.0 -0.0 6.37782 11.5417 -11.9972 -24.406 27.6629 -65.8585 0.282041 7.95376 -0.0196079 -5.46144 0.224145 -0.660914 4.64295 -2.90213 -34.047 0.0 0.0 0.0 11.8819 5.15025 -16.4669 -3.32207 0.122454 0.495057 30.2722 21.9178 -4.07014 6.66476 -0.0 -0.0 -0.0 0.0 -0.0 50.0456 43.215 -37.985 -7.86694 -0.243073 -1.18193 -6.08317 -18.4666 -0.914945 3.71165 -0.0 -0.0 0.0 0.0 0.0 
944.086 729.099 -1481.95 -6.90443 39.3622 18.5925 2.96986 -0.389131 -3.74111 2.97763 -0.150458 -3.75826 2.98512 0.449463 -3.73435 2.96569 -0.145517 -3.75845 -4.15377 5.59609 3.19263 -4.1166 7.80313 4.17815 -0.0 0.0 -0.0 -0.413057 19.1678 1.62315 7.65913 -19.7815 67.5392 2.82037 -54.3964 1.44958 -11.4791 -0.542857 1.36113 -1.40802 0.85002 -9.06104 -0.0 0.0 -0.0 6.11765 11.9524 -11.423 -24.3892 27.8063 -66.258 0.319079 8.9822 -0.0250623 -5.69548 0.235152 -0.688743 5.0305 -2.25536 -36.9786 0.0 0.0 0.0 11.3946 3.49836 -15.8896 -6.77945 0.21918 1.01675 30.7059 21.6006 -4.11248 7.40577 -0.0 -0.0 -0.0 0.0 -0.0 49.2152 46.7088 -38.0924 -6.35815 -0.209082 -0.95289 -4.54579 -14.8264 -0.675763 3.68324 -0.0 -0.0 0.0 0.0 0.0 
937.116 727.439 -1484.69 -7.51583 39.361 18.8012 3.03306 -0.298795 -3.63344 3.0404 -0.0671412 -3.64507 3.04226 0.510229 -3.60986 3.02408 -0.0658913 -3.6451 -5.11127 5.6393 3.80276 -5.06876 7.52283 4.85024 -0.0 0.0 -0.0 -0.651071 21.53 1.57505 9.01861 -19.353 69.3554 2.6761 -52.962 1.33333 -10.3154 -0.475498 1.22836 -1.37886 4.94915 -7.00237 -0.0 0.0 -0.0 6.23556 13.3891 -11.5896 -23.9625 28.0675 -66.4951 0.438404 12.253 -0.0470572 -5.07534 0.206235 -0.614911 4.91271 -1.16088 -35.538 0.0 0.0 0.0 12.1134 4.17696 -15.4198 -6.82116 0.220154 1.02308 31.9196 26.1281 -4.35602 6.93451 -0.0 -0.0 -0.0 0.0 -0.0 53.3217 48.4688 -41.5801 -8.97433 -0.264177 -1.35054 -2.92461 -25.4328 -0.45026 3.64302 -0.0 -0.0 0.0 0.0 0.0 
931.509 726.404 -1494.76 -7.22305 40.432 18.3454 2.96037 -0.415902 -3.59914 2.96755 -0.18619 -3.61828 2.97715 0.392297 -3.60178 2.9591 -0.181076 -3.61853 -4.39848 4.73039 3.34648 -4.36454 6.12343 4.20524 -0.0 0.0 -0.0 -0.346569 20.5221 1.88682 6.78777 -20.3109 68.8266 2.54535 -51.574 1.22991 -11.3583 -0.535738 1.34741 -0.725567 -2.70562 -6.02893 -0.0 0.0 -0.0 6.70675 14.268 -12.5454 -23.2363 28.4699 -67.4611 0.464623 12.9617 -0.05278 -4.53492 0.181689 -0.550322 5.3652 -1.12244 -39.3572 0.0 0.0 0.0 13.0848 2.50663 -16.0876 -11.9124 0.304334 1.79953 30.5085 22.6591 -4.11206 7.24419 -0.0 -0.0 -0.0 0.0 -0.0 53.2636 51.2309 -41.8833 -7.30633 -0.231147 -1.09672 -1.10874 -19.2703 -0.165613 3.6911 -0.0 -0.0 0.0 0.0 0.0 
919.259 722.601 -1499.26 -6.0036 41.3341 16.4339 2.89188 -0.465048 -3.59529 2.89904 -0.235481 -3.61756 2.91191 0.347538 -3.60853 2.89382 -0.226339 -3.61814 -4.24917 4.66266 2.87376 -4.22138 6.34579 3.70487 -0.0 0.0 -0.0 -0.320344 20.0794 1.87154 5.5731 -20.307 69.9587 2.21189 -47.6084 0.97585 -9.7857 -0.445736 1.16748 0.499489 -9.19522 -0.532987 -0.0 0.0 -0.0 6.43791 14.946 -11.9255 -23.6642 29.1493 -67.5473 0.533936 14.8154 -0.0694198 -5.14596 0.209488 -0.623334 5.33964 0.268631 -38.5107 0.0 0.0 0.0 12.4517 0.890676 -14.8503 -17.7249 0.315782 2.69088 34.8389 19.9154 -4.52235 8.30565 -0.0 -0.0 -0.0 0.0 -0.0 59.0624 54.8725 -47.6234 -13.7064 -0.317516 -2.07446 6.93265 -24.6932 1.03875 3.69165 -0.0 -0.0 0.0 0.0 0.0 
912.299 724.305 -1504.33 -5.66793 41.6399 15.5192 2.91279 -0.413962 -3.31579 2.91888 -0.202251 -3.33538 2.92892 0.334093 -3.32477 2.91355 -0.194884 -3.33582 -4.13655 4.13333 3.20168 -4.10647 5.11573 3.95294 -0.0 0.0 -0.0 -0.362925 19.425 1.72932 4.36045 -19.4618 70.2358 1.93081 -43.7207 0.774692 -9.13194 -0.409785 1.09197 1.53794 -14.4476 4.19185 -0.0 0.0 -0.0 6.76861 14.4466 -12.6675 -22.9197 31.6262 -66.8349 0.610403 16.8242 -0.090269 -6.97388 0.297282 -0.839948 4.76432 -1.15042 -34.3171 0.0 0.0 0.0 13.14 -0.888787 -13.8446 -22.9899 0.248162 3.49564 39.0516 20.2484 -4.9456 9.15672 -0.0 -0.0 -0.0 0.0 -0.0 62.6528 55.693 -51.5382 -17.9435 -0.314447 -2.7244 12.087 -30.6474 1.85091 2.92993 -0.0 -0.0 0.0 0.0 0.0 
905.492 722.086 -1501.87 -6.07098 41.4115 14.8174 3.07392 -0.543361 -3.2419 3.0797 -0.336082 -3.26986 3.09703 0.181629 -3.28205 3.08216 -0.338706 -3.26959 -4.30762 4.46608 2.48508 -4.28504 6.28698 3.27665 -0.0 0.0 -0.0 -0.240028 20.8566 2.08105 3.31522 -19.4305 71.2047 1.77606 -41.3378 0.67006 -8.46229 -0.373858 1.01422 1.44212 -14.7308 3.42186 -0.0 0.0 -0.0 7.38785 16.2981 -13.8909 -22.355 30.5046 -65.1471 0.686223 18.7747 -0.113449 -5.54883 0.228241 -0.67131 3.54787 -1.49066 -25.0584 0.0 0.0 0.0 13.8763 -1.95593 -12.7755 -25.1445 0.199218 3.82263 40.0141 18.4264 -4.99516 6.37977 -0.0 -0.0 -0.0 0.0 -0.0 60.5736 54.1462 -48.7047 -21.6652 -0.272136 -3.29378 12.3379 -30.6041 1.88721 1.3911 -0.0 -0.0 0.0 0.0 0.0 
897.679 723.296 -1508.16 -6.64147 42.5732 15.2549 3.33491 -0.65646 -3.11209 3.34018 -0.4572 -3.14751 3.36327 0.0278004 -3.18039 3.34947 -0.474579 -3.14494 -4.47268 3.96258 2.55645 -4.45188 5.32267 3.2728 -0.0 0.0 -0.0 -0.226621 19.9486 1.99339 2.17585 -19.9136 72.1197 1.57571 -37.9714 0.542149 -6.9085 -0.294023 0.832249 1.89587 -14.6211 6.52677 -0.0 0.0 -0.0 7.70695 13.351 -14.7487 -22.3468 29.5581 -64.0933 0.788518 21.336 -0.148538 -4.78093 0.192788 -0.579752 3.53931 1.19471 -23.9139 0.0 0.0 0.0 14.7301 -1.68712 -13.2752 -25.8265 0.181164 3.92575 36.5219 20.0028 -4.6945 5.79088 -0.0 -0.0 -0.0 0.0 -0.0 58.9812 54.5696 -47.5732 -21.7611 -0.270557 -3.30841 15.4792 -30.5643 2.34211 3.26683 -0.0 -0.0 0.0 0.0 0.0 
894.69 717.222 -1513.07 -6.49646 42.2814 14.7079 3.2303 -0.569405 -2.81509 3.23462 -0.389194 -2.84558 3.25241 0.0546251 -2.87153 3.24113 -0.399379 -2.84417 -3.87265 3.67084 2.02504 -3.85674 5.1512 2.66265 -0.0 0.0 -0.0 -0.108558 19.3083 2.09312 0.226508 -19.5383 71.529 1.36737 -34.1102 0.419503 -5.86368 -0.243133 0.708715 2.65484 -16.9097 10.6027 -0.0 0.0 -0.0 7.88624 12.4485 -15.1772 -21.3328 28.1364 -63.543 0.969218 25.6462 -0.220617 -4.56336 0.182966 -0.553726 3.90728 0.45386 -26.9567 0.0 0.0 0.0 15.2453 -4.87325 -11.8213 -29.6327 0.0579594 4.49679 41.3037 19.8736 -5.14424 7.86854 -0.0 -0.0 -0.0 0.0 -0.0 61.6193 56.2502 -50.2343 -22.379 -0.259798 -3.40261 20.8284 -29.7127 3.06897 2.5416 -0.0 -0.0 0.0 0.0 0.0 
895.466 719.158 -1514.08 -6.83351 41.7818 14.3014 3.28718 -0.626827 -2.62149 3.29089 -0.458805 -2.65603 3.31081 -0.0462462 -2.69494 3.30098 -0.471129 -2.65387 -4.62989 2.69895 2.10905 -4.61722 3.35457 2.6089 -0.0 0.0 -0.0 -0.0959747 17.9784 1.95846 -0.664087 -19.0658 72.1432 1.16801 -30.0526 0.313552 -5.26895 -0.215177 0.637995 3.01432 -20.3804 11.3379 -0.0 0.0 -0.0 8.62681 14.9046 -16.6706 -19.5308 26.1 -63.9884 1.09902 28.564 -0.279776 -3.71862 0.145773 -0.452334 3.78188 0.706882 -25.9118 0.0 0.0 0.0 15.2093 -5.68089 -11.6489 -30.4413 0.0269123 4.61699 41.2916 17.2614 -5.08652 7.37139 -0.0 -0.0 -0.0 0.0 -0.0 61.0993 55.5763 -49.0582 -24.2755 -0.220439 -3.69097 24.5193 -28.6363 3.52907 3.5937 -0.0 -0.0 0.0 0.0 0.0 
888.679 721.753 -1522.14 -7.45913 41.5896 14.2067 3.3645 -0.56153 -2.46124 3.36778 -0.403827 -2.49196 3.38407 -0.0202481 -2.52436 3.37542 -0.418545 -2.48953 -2.6386 1.93172 0.54493 -2.63431 3.07475 0.839734 -0.0 0.0 -0.0 -0.176592 19.0481 1.9615 -1.69889 -18.0546 72.7935 1.05123 -27.5076 0.257316 -6.64381 -0.280918 0.80104 2.54761 -16.4505 10.0931 -0.0 0.0 -0.0 8.49852 9.85393 -16.5843 -18.2997 25.073 -63.399 1.33379 33.452 -0.400833 -3.263 0.126336 -0.397427 3.09337 0.587657 -20.9228 0.0 0.0 0.0 15.7136 -2.13064 -11.8364 -29.4347 0.0653022 4.46729 37.9394 20.7009 -4.84946 5.09098 -0.0 -0.0 -0.0 0.0 -0.0 59.1976 57.0237 -47.7523 -21.5659 -0.273744 -3.27864 22.3126 -29.8907 3.27177 2.51178 -0.0 -0.0 0.0 0.0 0.0 
